<svg width="304" height="296" viewBox="0 0 304 296" fill="none" xmlns="http://www.w3.org/2000/svg">
<rect x="8.60839" y="8.60839" width="286.783" height="278.416" rx="50.4206" stroke="#17181C" stroke-width="17.2168"/>
<path d="M62.621 36.6348H59.4558C48.5889 36.6348 39.7795 45.4442 39.7795 56.3111V121.38H62.621V36.6348Z" fill="#17181C"/>
<path d="M99.0536 122.539C119.743 122.539 131.992 109.297 131.992 89.7661C131.992 70.2349 119.743 56.9935 99.0536 56.9935C78.3639 56.9935 66.1155 70.2349 66.1155 89.7661C66.1155 109.297 78.3639 122.539 99.0536 122.539ZM99.2191 105.656C93.095 105.656 89.4536 99.573 89.4536 89.6006C89.4536 79.6281 93.095 73.5453 99.2191 73.5453C105.012 73.5453 108.654 79.6281 108.654 89.6006C108.654 99.573 105.012 105.656 99.2191 105.656Z" fill="#17181C"/>
<path d="M166.055 122.539C186.745 122.539 198.993 109.297 198.993 89.7661C198.993 70.2349 186.745 56.9935 166.055 56.9935C145.366 56.9935 133.117 70.2349 133.117 89.7661C133.117 109.297 145.366 122.539 166.055 122.539ZM166.221 105.656C160.097 105.656 156.455 99.573 156.455 89.6006C156.455 79.6281 160.097 73.5453 166.221 73.5453C172.014 73.5453 175.655 79.6281 175.655 89.6006C175.655 99.573 172.014 105.656 166.221 105.656Z" fill="#17181C"/>
<path d="M233.057 122.539C253.747 122.539 265.995 109.297 265.995 89.7661C265.995 70.2349 253.747 56.9935 233.057 56.9935C212.367 56.9935 200.119 70.2349 200.119 89.7661C200.119 109.297 212.367 122.539 233.057 122.539ZM233.223 105.656C227.098 105.656 223.457 99.573 223.457 89.6006C223.457 79.6281 227.098 73.5453 233.223 73.5453C239.016 73.5453 242.657 79.6281 242.657 89.6006C242.657 99.573 239.016 105.656 233.223 105.656Z" fill="#17181C"/>
<path d="M39.7795 242.063C39.7795 252.93 48.5889 261.739 59.4558 261.739H62.621V227.477H62.952C65.6003 233.932 71.7245 238.732 80.6625 238.732C94.235 238.732 105.656 228.139 105.656 206.125C105.656 183.118 93.4074 173.518 80.828 173.518C71.3935 173.518 65.4348 178.98 62.952 185.436H62.4555V174.346H39.7795V242.063ZM62.1245 206.125C62.1245 196.691 65.9314 191.063 72.2211 191.063C78.5108 191.063 82.1522 196.691 82.1522 206.125C82.1522 215.56 78.5108 221.187 72.2211 221.187C65.9314 221.187 62.1245 215.394 62.1245 206.125Z" fill="#17181C"/>
<path d="M109.399 237.905H132.24V174.346H109.399V237.905ZM120.819 167.725C127.026 167.725 132.074 163.049 132.074 157.297C132.074 151.546 127.026 146.87 120.819 146.87C114.612 146.87 109.564 151.546 109.564 157.297C109.564 163.049 114.612 167.725 120.819 167.725Z" fill="#17181C"/>
<path d="M160.893 202.153C160.935 195.863 164.493 192.056 170.162 192.056C175.914 192.056 179.307 195.863 179.266 202.153V237.905H202.107V197.353C202.149 183.532 193.418 173.518 179.928 173.518C170.576 173.518 163.169 178.401 160.397 186.429H159.735V174.346H138.052V237.905H160.893V202.153Z" fill="#17181C"/>
<path d="M238.178 263.064C258.288 263.064 271.612 253.877 271.612 237.739V174.346H248.771V185.436H248.274C245.792 178.98 239.833 173.518 230.398 173.518C217.819 173.518 205.571 183.118 205.571 206.125C205.571 228.139 216.991 237.077 230.564 237.077C239.171 237.077 245.957 233.436 248.44 226.981H249.102V237.739C249.102 245.229 244.757 247.67 238.84 247.67C233.585 247.67 229.736 246.098 229.074 242.043H207.06C207.929 254.291 219.06 263.064 238.178 263.064ZM239.005 220.856C232.716 220.856 229.074 215.56 229.074 206.125C229.074 196.691 232.716 191.063 239.005 191.063C245.295 191.063 249.102 196.691 249.102 206.125C249.102 215.394 245.295 220.856 239.005 220.856Z" fill="#17181C"/>
</svg>
