<svg width="1027" height="242" viewBox="0 0 1027 242" fill="none" xmlns="http://www.w3.org/2000/svg">
<path fill-rule="evenodd" clip-rule="evenodd" d="M960.282 180.709C995.097 180.709 1023.32 152.486 1023.32 117.671C1023.32 82.856 995.097 54.6328 960.282 54.6328C925.467 54.6328 897.244 82.856 897.244 117.671C897.244 152.486 925.467 180.709 960.282 180.709ZM960.282 142.886C974.208 142.886 985.497 131.597 985.497 117.671C985.497 103.745 974.208 92.4555 960.282 92.4555C946.356 92.4555 935.066 103.745 935.066 117.671C935.066 131.597 946.356 142.886 960.282 142.886Z" fill="#AFCCF9"/>
<rect x="1026.47" y="54.6328" width="37.8229" height="67.2407" transform="rotate(90 1026.47 54.6328)" fill="#608EF9"/>
<path d="M990.225 197.519C968.162 211.703 937.518 203.998 927.712 197.519L915.104 231.665C940.845 246.899 987.073 243.747 1003.36 231.665L990.225 197.519Z" fill="#AFCCF9"/>
<rect x="699.724" y="54.6333" width="37.8229" height="126.076" fill="#AFCCF9"/>
<circle cx="718.635" cy="18.9115" r="18.9115" fill="#608EF9"/>
<path fill-rule="evenodd" clip-rule="evenodd" d="M619.876 180.71C654.691 180.71 682.914 152.487 682.914 117.671C682.914 82.8565 654.691 54.6333 619.876 54.6333C585.061 54.6333 556.837 82.8565 556.837 117.671C556.837 152.487 585.061 180.71 619.876 180.71ZM619.876 142.886C633.802 142.886 645.091 131.597 645.091 117.671C645.091 103.745 633.802 92.4559 619.876 92.4559C605.95 92.4559 594.66 103.745 594.66 117.671C594.66 131.597 605.95 142.886 619.876 142.886Z" fill="#AFCCF9"/>
<rect x="556.837" y="54.6333" width="37.8229" height="168.102" fill="#608EF9"/>
<path fill-rule="evenodd" clip-rule="evenodd" d="M476.989 180.71C511.804 180.71 540.027 152.487 540.027 117.671C540.027 82.8565 511.804 54.6333 476.989 54.6333C442.174 54.6333 413.951 82.8565 413.951 117.671C413.951 152.487 442.174 180.71 476.989 180.71ZM476.989 142.886C490.915 142.886 502.204 131.597 502.204 117.671C502.204 103.745 490.915 92.4559 476.989 92.4559C463.063 92.4559 451.774 103.745 451.774 117.671C451.774 131.597 463.063 142.886 476.989 142.886Z" fill="#AFCCF9"/>
<path fill-rule="evenodd" clip-rule="evenodd" d="M334.102 180.71C368.917 180.71 397.141 152.487 397.141 117.671C397.141 82.8565 368.917 54.6333 334.102 54.6333C299.287 54.6333 271.064 82.8565 271.064 117.671C271.064 152.487 299.287 180.71 334.102 180.71ZM334.102 142.886C348.028 142.886 359.318 131.597 359.318 117.671C359.318 103.745 348.028 92.4559 334.102 92.4559C320.176 92.4559 308.887 103.745 308.887 117.671C308.887 131.597 320.176 142.886 334.102 142.886Z" fill="#AFCCF9"/>
<path fill-rule="evenodd" clip-rule="evenodd" d="M191.038 180.71C225.853 180.71 254.076 152.487 254.076 117.671C254.076 82.8565 225.853 54.6333 191.038 54.6333C156.223 54.6333 128 82.8565 128 117.671C128 152.487 156.223 180.71 191.038 180.71ZM191.038 142.886C204.964 142.886 216.253 131.597 216.253 117.671C216.253 103.745 204.964 92.4559 191.038 92.4559C177.112 92.4559 165.823 103.745 165.823 117.671C165.823 131.597 177.112 142.886 191.038 142.886Z" fill="#AFCCF9"/>
<path fill-rule="evenodd" clip-rule="evenodd" d="M792.18 116.62L792.18 179.659H754.357L754.357 116.62H754.366C754.927 82.2899 782.931 54.6328 817.396 54.6328C851.86 54.6328 879.864 82.2899 880.425 116.62H880.434L880.434 179.659H842.611L842.611 116.62H842.589C842.039 103.181 830.97 92.4555 817.396 92.4555C803.821 92.4555 792.752 103.181 792.202 116.62H792.18ZM880.434 117.671L880.434 117.8V117.542L880.434 117.671Z" fill="#AFCCF9"/>
<rect y="2.10144" width="37.8229" height="176.507" fill="#AFCCF9"/>
<rect x="111.367" y="140.785" width="37.8229" height="111.367" transform="rotate(90 111.367 140.785)" fill="#608EF9"/>
</svg>
